<mxfile host="65bd71144e">
    <diagram id="-CzU6EmFPqNBCwUeWCBU" name="Page-1">
        <mxGraphModel dx="730" dy="440" grid="1" gridSize="10" guides="1" tooltips="1" connect="1" arrows="1" fold="1" page="1" pageScale="1" pageWidth="827" pageHeight="1169" math="0" shadow="0">
            <root>
                <mxCell id="0"/>
                <mxCell id="1" parent="0"/>
                <mxCell id="8" style="edgeStyle=none;html=1;exitX=1;exitY=1;exitDx=0;exitDy=0;" edge="1" parent="1" source="2">
                    <mxGeometry relative="1" as="geometry">
                        <mxPoint x="420" y="260" as="targetPoint"/>
                    </mxGeometry>
                </mxCell>
                <mxCell id="2" value="AUTENTICACÃƒO&lt;br&gt;COM&lt;br&gt;&lt;b&gt;&lt;font style=&quot;font-size: 14px;&quot;&gt;CLERK&lt;/font&gt;&lt;/b&gt;" style="rounded=1;whiteSpace=wrap;html=1;" vertex="1" parent="1">
                    <mxGeometry x="120" y="90" width="220" height="100" as="geometry"/>
                </mxCell>
                <mxCell id="3" value="" style="shape=cylinder3;whiteSpace=wrap;html=1;boundedLbl=1;backgroundOutline=1;size=15;" vertex="1" parent="1">
                    <mxGeometry x="430" y="210" width="60" height="50" as="geometry"/>
                </mxCell>
                <mxCell id="4" value="" style="shape=cylinder3;whiteSpace=wrap;html=1;boundedLbl=1;backgroundOutline=1;size=15;" vertex="1" parent="1">
                    <mxGeometry x="430" y="240" width="60" height="50" as="geometry"/>
                </mxCell>
                <mxCell id="5" value="" style="shape=cylinder3;whiteSpace=wrap;html=1;boundedLbl=1;backgroundOutline=1;size=15;" vertex="1" parent="1">
                    <mxGeometry x="430" y="270" width="60" height="50" as="geometry"/>
                </mxCell>
                <mxCell id="9" value="&lt;div style=&quot;text-align: justify; font-size: 15px;&quot;&gt;&lt;span style=&quot;background-color: initial;&quot;&gt;&lt;font style=&quot;font-size: 15px;&quot;&gt;-GERENCIAMENTO DE ESTADO&lt;/font&gt;&lt;/span&gt;&lt;/div&gt;&lt;div style=&quot;text-align: justify; font-size: 15px;&quot;&gt;&lt;span style=&quot;background-color: initial;&quot;&gt;&lt;font style=&quot;font-size: 15px;&quot;&gt;-PROTECAO DE ROTAS&lt;/font&gt;&lt;/span&gt;&lt;/div&gt;&lt;div style=&quot;text-align: justify; font-size: 15px;&quot;&gt;&lt;font style=&quot;font-size: 15px;&quot;&gt;-PAGINA DE LOGIN E REGISTRO&lt;/font&gt;&lt;/div&gt;&lt;div style=&quot;text-align: justify; font-size: 15px;&quot;&gt;&lt;font style=&quot;font-size: 15px;&quot;&gt;-ARMAZENAMENTO DE DADOS&lt;/font&gt;&lt;/div&gt;&lt;div style=&quot;text-align: justify; font-size: 15px;&quot;&gt;&lt;font style=&quot;font-size: 15px;&quot;&gt;-ENDPONOT(conexao com servico de autenticacao)&lt;/font&gt;&lt;/div&gt;&lt;div style=&quot;text-align: justify; font-size: 15px;&quot;&gt;&lt;font style=&quot;font-size: 15px;&quot;&gt;-SEGURANCA(token)&lt;/font&gt;&lt;/div&gt;" style="text;html=1;strokeColor=none;fillColor=none;align=center;verticalAlign=middle;whiteSpace=wrap;rounded=0;" vertex="1" parent="1">
                    <mxGeometry x="440" y="40" width="376" height="135" as="geometry"/>
                </mxCell>
            </root>
        </mxGraphModel>
    </diagram>
</mxfile>